<?xml version="1.0" standalone="no"?>
<!DOCTYPE svg PUBLIC "-//W3C//DTD SVG 20010904//EN"
 "http://www.w3.org/TR/2001/REC-SVG-20010904/DTD/svg10.dtd">
<svg version="1.0" xmlns="http://www.w3.org/2000/svg"
 width="205.000000pt" height="245.000000pt" viewBox="0 0 205.000000 245.000000"
 preserveAspectRatio="xMidYMid meet">

<g transform="translate(0.000000,245.000000) scale(0.100000,-0.100000)"
fill="#000000" stroke="none">
<path d="M955 2395 c-49 -29 -90 -59 -90 -66 0 -11 289 -189 612 -376 45 -26
87 -58 92 -71 7 -15 11 -179 11 -472 0 -327 3 -450 11 -450 16 0 154 77 168
94 8 9 10 147 9 491 l-3 477 -190 113 c-104 62 -262 156 -350 210 -87 53 -164
99 -170 101 -5 2 -50 -21 -100 -51z"/>
<path d="M595 2186 c-88 -51 -221 -127 -295 -170 -205 -116 -274 -157 -284
-166 -5 -5 -11 -55 -13 -110 -3 -82 0 -102 11 -106 9 -3 52 16 98 44 213 127
637 362 652 362 10 0 88 -42 174 -93 470 -281 552 -328 562 -322 16 10 13 210
-3 223 -43 36 -711 432 -728 432 -8 0 -86 -42 -174 -94z"/>
<path d="M575 1854 c-454 -262 -547 -318 -561 -339 -12 -18 -14 -90 -12 -456
l3 -434 88 -58 c48 -32 92 -55 97 -52 6 4 10 172 10 433 0 235 3 436 6 447 3
14 107 78 337 209 385 218 410 234 402 246 -8 12 -171 110 -181 109 -5 -1 -90
-48 -189 -105z"/>
<path d="M1850 1497 c0 -389 -2 -466 -15 -483 -8 -12 -88 -62 -177 -113 -309
-173 -502 -287 -505 -298 -4 -12 29 -36 127 -91 l55 -31 130 76 c72 41 227
129 345 195 118 66 219 123 224 128 5 5 11 221 13 480 5 438 4 473 -12 490
-21 24 -158 110 -174 110 -8 0 -11 -129 -11 -463z"/>
<path d="M369 1422 c-36 -20 -73 -43 -83 -51 -15 -12 -16 -54 -14 -465 l3
-451 70 -41 c39 -23 209 -124 378 -224 170 -101 315 -183 321 -183 7 0 54 23
105 53 77 44 90 55 79 66 -15 15 -175 110 -517 309 -171 100 -243 146 -247
162 -3 11 -6 209 -7 439 -1 268 -6 418 -12 420 -5 2 -40 -14 -76 -34z"/>
<path d="M547 843 c-4 -3 -7 -52 -7 -108 0 -85 3 -104 18 -117 9 -8 111 -70
227 -138 116 -68 284 -167 375 -221 l165 -98 56 32 c31 18 187 106 349 197
161 91 299 175 306 186 12 17 13 41 7 115 -5 52 -13 93 -18 92 -6 -1 -162 -87
-347 -192 -186 -105 -342 -191 -348 -191 -9 0 -619 356 -732 427 -42 26 -42
26 -51 16z"/>
</g>
</svg>
